<svg height="512pt" viewBox="0 0 512 512" width="512pt" xmlns="http://www.w3.org/2000/svg"><path d="m407.671875 38.042969h-234.878906v97.402343h285.042969v-47.257812c0-27.652344-22.503907-50.144531-50.164063-50.144531zm0 0" fill="#ccf4ff"/><path d="m274.714844 150.433594h-274.714844v-90.378906c0-33.117188 26.949219-60.054688 60.078125-60.054688h87.835937c8.730469 0 17.140626 1.839844 24.78125 5.296875 10.671876 4.808594 19.839844 12.734375 26.269532 23.089844zm0 0" fill="#ffb129"/><path d="m512 170.667969v291.125c0 27.6875-22.539062 50.207031-50.238281 50.207031h-411.523438c-27.699219 0-50.238281-22.519531-50.238281-50.207031v-341.34375h461.761719c27.699219 0 50.238281 22.527343 50.238281 50.21875zm0 0" fill="#ffda2f"/><path d="m512 170.667969v291.125c0 27.6875-22.539062 50.207031-50.238281 50.207031h-205.761719v-391.550781h205.761719c27.699219 0 50.238281 22.527343 50.238281 50.21875zm0 0" fill="#ffb129"/></svg>